<svg id="Ebene_1" data-name="Ebene 1" xmlns="http://www.w3.org/2000/svg" viewBox="0 0 150.6 95.13"><defs><style>.cls-1{fill:#1d1d1b;}.cls-2{fill:#fdc743;stroke:#fdc743;}.cls-2,.cls-3{stroke-linejoin:round;}.cls-3{fill:#f49600;stroke:#f49600;}.cls-4{fill:#7d4e24;}.cls-5{fill:#6bad2e;}</style></defs><path class="cls-1" d="M365.86,139.43V125.75a4.61,4.61,0,0,0-1.2-3.17,4.39,4.39,0,0,0-3.46-1.34c-3.1,0-4.66,1.5-4.66,4.51v13.68h-2V125.75a4.09,4.09,0,0,0-1.35-3.22,5,5,0,0,0-6.62,0,4.15,4.15,0,0,0-1.35,3.27v13.68h-2V119.6h2v2a5.12,5.12,0,0,1,4.66-2.25,6.09,6.09,0,0,1,5.66,3.12,6,6,0,0,1,5.62-3.12A6.82,6.82,0,0,1,366,121a6.2,6.2,0,0,1,1.82,4.75v13.68Z" transform="translate(-313.13 -68.76)"/><path class="cls-1" d="M390.82,139.43V136a10.27,10.27,0,1,1-7.92-16.7,10,10,0,0,1,7.92,3.74V119.6h2v19.83Zm-2.07-15.75a8.28,8.28,0,1,0,2.45,5.86A8,8,0,0,0,388.75,123.68Z" transform="translate(-313.13 -68.76)"/><path class="cls-1" d="M412,139.43V127.57c0-4.19-1.88-6.29-5.66-6.29a5.32,5.32,0,0,0-4.22,1.64,6.31,6.31,0,0,0-1.49,4.46v12.05h-2V119.6h2V122c.89-1.76,2.8-2.64,5.71-2.64a7.35,7.35,0,0,1,5.66,2.12,8.27,8.27,0,0,1,2,5.9v12.05Z" transform="translate(-313.13 -68.76)"/><path class="cls-1" d="M436.22,146.05a9.54,9.54,0,0,1-7.05,2.69q-8.12,0-9.7-6.38h2a5,5,0,0,0,3,3.5,11.12,11.12,0,0,0,4.71.91,7.64,7.64,0,0,0,5.71-2.06,7.82,7.82,0,0,0,2.06-5.76V136a10.22,10.22,0,1,1,0-13V119.6h2V139A9.54,9.54,0,0,1,436.22,146.05Zm-1.34-22.37a8.28,8.28,0,1,0,2.45,5.86A8,8,0,0,0,434.88,123.68Z" transform="translate(-313.13 -68.76)"/><path class="cls-1" d="M460.8,136.79a9.93,9.93,0,0,1-7.3,3,10.25,10.25,0,0,1-7.24-17.47,9.68,9.68,0,0,1,7.24-3,10.32,10.32,0,0,1,7.3,17.52Zm-1.39-13.15a8.17,8.17,0,0,0-11.71,0,8.24,8.24,0,1,0,11.71,0Z" transform="translate(-313.13 -68.76)"/><path class="cls-2" d="M330.84,85.46c5.25-.11,15.56,2.49,20.36,6.13C362,99.75,363,103.75,365.45,114.38c0,.11,0,.23-.06.34a26.66,26.66,0,0,0-14.61-17.8c-5.13-2.46-14-6.41-19-6.3-14,.3-19.34,14.89-14.21,27.74q.28.73.63,1.44a29.49,29.49,0,0,1-2.61-5C310.2,101.22,316,85.77,330.84,85.46Z" transform="translate(-313.13 -68.76)"/><path class="cls-3" d="M313.64,114.72a27.52,27.52,0,0,0,2.86,6.14c5.35,8.51,16.49,12.94,20.69,22.49,1.55,3.52,4.2,10,6.72,13.06,4.76,5.74,11.76-.14,14.61-4,2.05-2.79,4.83-6.35,6-8.67a38.23,38.23,0,0,1-7.6,14.14c-3.12,3.58-10.55,8.8-15,2.71-2.33-3.2-4.68-9.64-6-13.25-3.59-9.8-14.49-15-19.31-23.84A27.14,27.14,0,0,1,313.64,114.72Z" transform="translate(-313.13 -68.76)"/><path class="cls-4" d="M326.21,70.72c-1.88,1.78-2.69,4.85-2.12,8a20.45,20.45,0,0,0,2.62,6.49l-.19,0a21.74,21.74,0,0,0-2.11.54,21.61,21.61,0,0,1-2.57-6.66c-.7-3.9.37-7.76,2.8-10.06a1,1,0,0,1,.56-.29,1.13,1.13,0,0,1,1.05.33A1.15,1.15,0,0,1,326.21,70.72Z" transform="translate(-313.13 -68.76)"/><path class="cls-5" d="M347.77,81.66a28.23,28.23,0,0,0-20.56,1c.91-.07,2-.13,3.33-.14.85,0,1.78,0,2.76.06s2,.15,3.08.27,2.15.32,3.25.57a32.71,32.71,0,0,1,3.29.89,26.23,26.23,0,0,1,3.15,1.27l.76.36.73.4c.48.26.94.56,1.38.85a19.79,19.79,0,0,1,2.44,1.86,13.79,13.79,0,0,1,1,1c.34.32.62.66.9,1a23,23,0,0,1,1.42,1.82c.36.58.69,1.08.93,1.5l.72,1.37-.8-1.31c-.27-.41-.63-.89-1-1.44s-.91-1.13-1.51-1.7c-.3-.3-.59-.61-.94-.9s-.67-.61-1.06-.88a19.82,19.82,0,0,0-2.48-1.66,15.35,15.35,0,0,0-1.4-.72l-.72-.35-.75-.3a27,27,0,0,0-3.11-1,32.59,32.59,0,0,0-3.21-.65c-1.06-.18-2.13-.27-3.15-.34s-2-.09-3-.08-1.83.06-2.65.11c-1.64.12-3,.3-3.94.46h-.05c.58,4,3.62,12.91,19.22,14.22a27.75,27.75,0,0,1,6.63,1.32c2.94,1,6.29,2.72,7.17,5.5C359.64,106,365.28,87.58,347.77,81.66Z" transform="translate(-313.13 -68.76)"/></svg>
